<?xml version="1.0" standalone="no"?><!DOCTYPE svg PUBLIC "-//W3C//DTD SVG 1.1//EN" "http://www.w3.org/Graphics/SVG/1.1/DTD/svg11.dtd"><svg t="1731407670740" class="icon" viewBox="0 0 1024 1024" version="1.1" xmlns="http://www.w3.org/2000/svg" p-id="5545" width="64" height="64" xmlns:xlink="http://www.w3.org/1999/xlink"><path d="M977.454545 488.727273H46.545455c-13.963636 0-23.272727 9.309091-23.272728 23.272727 0 269.963636 218.763636 488.727273 488.727273 488.727273s488.727273-218.763636 488.727273-488.727273c0-13.963636-9.309091-23.272727-23.272728-23.272727z m-55.854545 186.181818H104.727273h-2.327273c-18.618182-44.218182-27.927273-90.763636-30.254545-139.636364H954.181818c-4.654545 48.872727-13.963636 95.418182-32.581818 139.636364zM512 954.181818c-176.872727 0-330.472727-104.727273-400.290909-256h800.581818c-69.818182 151.272727-223.418182 256-400.290909 256zM290.909091 395.636364c2.327273 0 4.654545 0 4.654545-2.327273 62.836364-32.581818 90.763636-62.836364 88.436364-95.418182-2.327273-18.618182-16.290909-27.927273-30.254545-39.563636-9.309091-6.981818-18.618182-16.290909-25.6-27.927273-16.290909-25.6-6.981818-65.163636 25.6-111.709091 4.654545-4.654545 2.327273-11.636364-2.327273-16.290909-4.654545-4.654545-11.636364-2.327273-16.290909 2.327273-39.563636 55.854545-48.872727 100.072727-27.927273 137.309091 9.309091 13.963636 20.945455 25.6 32.581818 32.581818 11.636364 9.309091 18.618182 16.290909 20.945455 23.272727 2.327273 11.636364-6.981818 34.909091-74.472728 69.818182-4.654545 2.327273-6.981818 9.309091-4.654545 16.290909 0 9.309091 4.654545 11.636364 9.309091 11.636364zM477.090909 302.545455c2.327273 0 4.654545 0 4.654546-2.327273 62.836364-32.581818 90.763636-62.836364 88.436363-95.418182-2.327273-18.618182-16.290909-27.927273-30.254545-39.563636-9.309091-6.981818-18.618182-16.290909-25.6-27.927273-16.290909-25.6-6.981818-65.163636 25.6-111.709091 4.654545-4.654545 2.327273-11.636364-2.327273-16.290909-4.654545-4.654545-11.636364-2.327273-16.290909 2.327273-39.563636 55.854545-48.872727 100.072727-27.927273 137.309091 9.309091 13.963636 20.945455 25.6 32.581818 32.581818 11.636364 9.309091 18.618182 16.290909 20.945455 23.272727 2.327273 11.636364-6.981818 34.909091-74.472727 69.818182-4.654545 2.327273-6.981818 9.309091-4.654546 16.290909 0 9.309091 4.654545 11.636364 9.309091 11.636364zM640 395.636364c2.327273 0 4.654545 0 4.654545-2.327273 62.836364-32.581818 90.763636-62.836364 88.436364-95.418182-2.327273-18.618182-16.290909-27.927273-30.254545-39.563636-9.309091-6.981818-18.618182-16.290909-25.6-27.927273-16.290909-25.6-6.981818-65.163636 25.6-111.709091 4.654545-4.654545 2.327273-11.636364-2.327273-16.290909-4.654545-4.654545-11.636364-2.327273-16.290909 2.327273-39.563636 55.854545-48.872727 100.072727-27.927273 137.309091 9.309091 13.963636 20.945455 25.6 32.581818 32.581818 11.636364 9.309091 18.618182 16.290909 20.945455 23.272727 2.327273 11.636364-6.981818 34.909091-74.472727 69.818182-4.654545 2.327273-6.981818 9.309091-4.654546 16.290909 0 9.309091 4.654545 11.636364 9.309091 11.636364z" fill="#f4ea2a" p-id="5546"></path></svg>